<?xml version="1.0" standalone="no"?>
<!DOCTYPE svg PUBLIC "-//W3C//DTD SVG 20010904//EN"
 "http://www.w3.org/TR/2001/REC-SVG-20010904/DTD/svg10.dtd">
<svg version="1.0" xmlns="http://www.w3.org/2000/svg"
 width="900.000000pt" height="900.000000pt" viewBox="0 0 900.000000 900.000000"
 preserveAspectRatio="xMidYMid meet">

<g transform="translate(0.000000,900.000000) scale(0.100000,-0.100000)"
fill="#000000" stroke="none">
<path d="M0 4500 l0 -4500 4500 0 4500 0 0 4500 0 4500 -4500 0 -4500 0 0
-4500z m3837 1042 c42 -64 90 -139 108 -167 18 -27 63 -97 100 -155 65 -101
108 -168 242 -378 100 -157 84 -145 201 -147 56 -1 105 1 110 4 7 6 85 124
214 326 28 44 70 109 93 145 23 36 75 117 115 180 40 63 102 159 137 212 l63
97 167 3 c93 2 174 1 181 -1 14 -4 16 -37 3 -45 -11 -7 -109 -155 -137 -206
-10 -19 -25 -43 -33 -53 -10 -12 -11 -21 -4 -28 12 -12 -20 -85 -68 -157 -16
-24 -29 -47 -29 -51 0 -4 -34 -56 -75 -115 -41 -59 -75 -111 -75 -117 0 -5 -6
-9 -14 -9 -7 0 -16 -10 -20 -22 -5 -18 -8 -20 -15 -9 -5 7 -14 10 -20 7 -21
-13 -211 -303 -211 -323 0 -6 -8 -14 -17 -17 -31 -8 -697 -5 -713 4 -9 5 -63
81 -121 170 -57 88 -140 216 -184 284 -44 67 -104 160 -134 207 -76 117 -173
268 -243 374 -48 73 -56 92 -45 100 9 6 79 9 181 7 l167 -3 76 -117z m3373 90
c172 -47 278 -115 388 -247 28 -34 86 -155 101 -211 18 -66 16 -331 -3 -384
-9 -25 -16 -52 -16 -61 0 -21 -69 -158 -90 -179 -8 -9 -29 -31 -45 -50 -48
-56 -103 -95 -200 -144 -111 -55 -214 -93 -280 -101 -27 -4 -243 -8 -479 -8
l-429 -2 -1 -360 -1 -360 -170 0 -170 0 -3 1059 c-2 841 0 1062 10 1068 7 5
306 7 663 5 620 -4 653 -5 725 -25z m-4595 -5 c128 -32 189 -49 204 -57 9 -4
52 -24 95 -44 281 -132 462 -345 530 -621 70 -291 53 -595 -48 -803 -43 -89
-86 -162 -96 -162 -5 0 -12 -10 -15 -22 -10 -32 -151 -165 -209 -196 -123 -68
-145 -79 -211 -104 -83 -32 -195 -65 -285 -85 -98 -22 -1141 -31 -1159 -10 -9
11 -11 263 -11 1062 0 576 3 1052 6 1057 4 6 218 8 573 5 463 -4 577 -7 626
-20z m1673 -1229 c9 -9 12 -120 12 -439 0 -380 -2 -428 -16 -433 -25 -9 -132
-7 -138 3 -8 13 -9 858 -1 871 9 14 128 13 143 -2z m277 1 c10 -15 6 -862 -4
-872 -4 -4 -39 -7 -77 -5 l-69 3 -3 430 c-1 237 0 436 3 443 6 15 141 17 150
1z m270 -434 l0 -440 -75 0 -75 0 -3 430 c-1 237 0 436 3 443 3 9 25 12 77 10
l73 -3 0 -440z"/>
<path d="M6161 5457 c-16 -16 -15 -969 1 -985 20 -20 776 -17 876 3 101 21
195 67 253 125 118 118 166 437 89 596 -47 97 -170 185 -340 244 -63 22 -79
23 -467 25 -272 1 -405 -1 -412 -8z"/>
<path d="M1728 5443 c-12 -14 -5 -1704 7 -1723 4 -6 131 -10 346 -10 359 0
425 6 549 51 214 78 424 301 496 526 34 108 47 211 40 323 -16 269 -93 448
-266 620 -68 68 -102 94 -170 128 -171 84 -313 104 -713 100 -215 -2 -280 -5
-289 -15z"/>
</g>
</svg>
